<svg width="36" height="36" xmlns="http://www.w3.org/2000/svg">
 <defs>
  <radialGradient r="163.5519" id="Instagram_2_" gradientUnits="userSpaceOnUse" cy="128.4444" cx="19.1111">
   <stop stop-color="#FFB140" offset="0"/>
   <stop stop-color="#FF5445" offset="0.2559"/>
   <stop stop-color="#FC2B82" offset="0.599"/>
   <stop stop-color="#8E40B7" offset="1"/>
  </radialGradient>
 </defs>
 <g>
  <title>background</title>
  <rect fill="none" id="canvas_background" height="38" width="38" y="-1" x="-1"/>
 </g>
 <g>
  <title>Layer 1</title>
  <rect stroke="null" x="0" y="-0.377346" id="svg_1" width="17.814835" height="19.135546" fill-rule="evenodd" fill="none" clip-rule="evenodd"/>
  <path stroke="null" id="Instagram" fill-rule="evenodd" fill="url(#Instagram_2_)" d="m29.305645,9.010253c0,1.146889 -0.939924,2.076405 -2.099046,2.076405c-1.159122,0 -2.099046,-0.929516 -2.099046,-2.076405c0,-1.146889 0.939924,-2.076405 2.099046,-2.076405c1.159395,0 2.099046,0.929516 2.099046,2.076405zm-11.436247,15.004189c-3.220177,0 -5.830592,-2.582258 -5.830592,-5.767701c0,-3.185443 2.610415,-5.767701 5.830592,-5.767701c3.220177,0 5.830592,2.582258 5.830592,5.767701c0,3.185443 -2.610415,5.767701 -5.830592,5.767701zm0,-14.653255c-4.960909,0 -8.98244,3.978154 -8.98244,8.885553c0,4.907399 4.021531,8.885553 8.98244,8.885553c4.960909,0 8.98244,-3.978154 8.98244,-8.885553c0,-4.907399 -4.021531,-8.885553 -8.98244,-8.885553zm0,-5.29997c4.67065,0 5.223836,0.017574 7.068154,0.100846c1.705475,0.077054 2.631733,0.358775 3.248055,0.595885c0.816387,0.313894 1.399091,0.688891 2.011312,1.294509c0.612222,0.605348 0.991307,1.181766 1.308624,1.989618c0.239422,0.609674 0.524488,1.525941 0.602382,3.21302c0.08418,1.824695 0.101946,2.371914 0.101946,6.992186c0,4.620271 -0.017765,5.167491 -0.101946,6.991915c-0.077894,1.687079 -0.362687,2.603347 -0.602382,3.21302c-0.317317,0.807581 -0.696402,1.384 -1.308624,1.989618c-0.611948,0.605618 -1.194652,0.980615 -2.011312,1.294509c-0.616321,0.23684 -1.54258,0.518831 -3.248055,0.595885c-1.844318,0.083272 -2.397504,0.100846 -7.068154,0.100846c-4.670924,0 -5.22411,-0.017574 -7.068428,-0.100846c-1.705475,-0.077054 -2.631733,-0.358775 -3.248055,-0.595885c-0.816387,-0.313894 -1.399091,-0.688891 -2.011312,-1.294509c-0.611948,-0.605348 -0.991307,-1.181766 -1.308624,-1.989618c-0.239422,-0.609674 -0.524488,-1.525941 -0.602382,-3.21302c-0.08418,-1.824695 -0.101946,-2.371914 -0.101946,-6.991915c0,-4.620271 0.017765,-5.167491 0.101946,-6.992186c0.077894,-1.687079 0.362687,-2.603347 0.602382,-3.21302c0.317317,-0.807581 0.696402,-1.384 1.308624,-1.989618c0.611948,-0.605618 1.194652,-0.980615 2.011312,-1.294509c0.616321,-0.23684 1.54258,-0.518831 3.248055,-0.595885c1.844591,-0.083272 2.397777,-0.100846 7.068428,-0.100846zm0,-3.117852c-4.750458,0 -5.346281,0.020007 -7.211917,0.104091c-1.86181,0.084084 -3.133537,0.376619 -4.245922,0.804337c-1.150376,0.442047 -2.125831,1.033877 -3.098279,1.995836c-0.972449,0.961959 -1.570731,1.926893 -2.017599,3.06486c-0.432382,1.100657 -0.728107,2.358396 -0.813107,4.200124c-0.085,1.845513 -0.105226,2.434909 -0.105226,7.134127c0,4.699218 0.020225,5.288614 0.105226,7.134127c0.085,1.841728 0.380725,3.099467 0.813107,4.200124c0.446867,1.137967 1.04515,2.102901 2.017599,3.06486c0.972449,0.961959 1.947904,1.553519 3.098279,1.995836c1.112658,0.427718 2.384112,0.720253 4.245922,0.804337c1.865636,0.084084 2.461459,0.104091 7.211917,0.104091c4.750458,0 5.346281,-0.020007 7.211917,-0.104091c1.86181,-0.084084 3.133263,-0.376619 4.245922,-0.804337c1.150376,-0.442318 2.125831,-1.033877 3.098279,-1.995836c0.972449,-0.961959 1.570458,-1.926893 2.017599,-3.06486c0.432382,-1.100657 0.728107,-2.358396 0.813107,-4.200124c0.085,-1.845513 0.105226,-2.434909 0.105226,-7.134127c0,-4.699218 -0.020225,-5.288614 -0.105226,-7.134127c-0.085,-1.841728 -0.380725,-3.099467 -0.813107,-4.200124c-0.447141,-1.137967 -1.04515,-2.102901 -2.017599,-3.06486c-0.972449,-0.961959 -1.947904,-1.553519 -3.098279,-1.995836c-1.112658,-0.427718 -2.384112,-0.720253 -4.245922,-0.804337c-1.865636,-0.084084 -2.461459,-0.104091 -7.211917,-0.104091z" clip-rule="evenodd"/>
 </g>
</svg>