<?xml version="1.0" standalone="no"?>
<!DOCTYPE svg PUBLIC "-//W3C//DTD SVG 20010904//EN"
 "http://www.w3.org/TR/2001/REC-SVG-20010904/DTD/svg10.dtd">
<svg version="1.0" xmlns="http://www.w3.org/2000/svg"
 width="312.000000pt" height="85.000000pt" viewBox="0 0 312.000000 85.000000"
 preserveAspectRatio="xMidYMid meet">

<g transform="translate(0.000000,85.000000) scale(0.100000,-0.100000)"
fill="#000000" stroke="none">
<path d="M1839 798 c-122 -88 -322 -338 -344 -430 -4 -16 -11 -28 -16 -28 -5
0 -38 -20 -75 -45 -49 -34 -75 -45 -102 -45 l-37 0 43 36 c77 65 95 127 68
239 -10 46 -13 50 -41 50 -24 0 -34 -7 -50 -37 -11 -21 -71 -83 -132 -139 -62
-56 -113 -106 -113 -111 0 -15 -52 -29 -82 -23 -19 5 -30 15 -34 31 -5 21 4
35 60 89 86 84 100 135 36 135 -34 0 -131 -83 -150 -130 -13 -32 -123 -108
-162 -113 -19 -2 -24 4 -26 28 -2 25 8 43 53 94 30 36 55 71 55 78 0 17 -29
63 -40 63 -5 0 -62 -42 -127 -93 -65 -51 -124 -97 -132 -102 -16 -9 -17 -11
41 80 71 109 34 160 -67 93 -27 -18 -91 -72 -142 -121 -51 -49 -97 -86 -103
-82 -14 9 1 34 65 106 30 34 55 65 55 70 0 5 -9 13 -21 19 -57 31 -163 -81
-184 -193 -8 -44 16 -122 41 -131 22 -9 32 -1 111 89 139 158 178 178 108 55
-24 -41 -46 -85 -49 -96 -8 -25 16 -54 44 -54 10 0 67 45 127 100 59 55 111
100 115 100 4 0 -8 -28 -27 -63 -51 -93 -45 -147 16 -147 23 0 93 41 200 119
17 12 19 11 19 -16 0 -17 10 -45 23 -64 38 -57 97 -50 188 22 l37 29 17 -26
c21 -32 88 -63 136 -64 43 0 116 37 181 91 26 21 49 39 51 39 2 0 7 -19 10
-41 3 -23 13 -49 21 -58 15 -14 23 -8 94 66 75 77 161 148 169 139 2 -2 -14
-28 -36 -57 -65 -85 -78 -159 -32 -174 23 -7 92 26 166 79 27 20 53 36 57 36
5 0 8 -14 8 -31 0 -21 10 -40 30 -61 27 -26 35 -29 68 -23 41 7 94 39 152 91
l39 35 11 -41 c6 -23 22 -53 35 -66 49 -49 161 -20 258 66 26 23 49 41 51 39
1 -2 8 -23 14 -46 34 -117 162 -110 305 18 32 28 57 59 57 70 0 16 -12 11 -74
-32 -108 -76 -196 -80 -196 -10 0 23 9 30 77 60 168 76 222 199 84 195 -87 -3
-183 -71 -246 -175 -25 -41 -133 -116 -181 -125 -55 -10 -88 5 -92 42 -3 29 0
32 69 59 169 66 231 203 89 199 -84 -3 -190 -76 -230 -158 -33 -70 -121 -136
-180 -136 -47 0 -60 15 -60 65 0 35 6 47 41 80 64 62 160 186 181 232 27 61
38 129 24 149 -11 14 -17 12 -56 -18 -54 -41 -172 -176 -208 -237 -14 -25 -36
-79 -48 -120 -21 -74 -23 -77 -75 -109 -56 -34 -92 -38 -97 -11 -1 8 22 47 53
85 56 71 64 91 43 112 -30 30 -83 4 -226 -111 -45 -37 -85 -67 -87 -67 -3 0
-5 9 -5 20 0 13 44 67 111 137 125 132 233 263 257 311 14 29 14 34 2 42 -23
15 -34 12 -81 -22z m345 -140 c-17 -54 -135 -211 -142 -189 -8 25 114 211 139
211 6 0 7 -9 3 -22z m296 -167 c0 -20 -51 -68 -99 -95 -56 -30 -62 -25 -28 25
36 54 127 104 127 70z m355 0 c8 -14 -58 -77 -105 -101 -36 -19 -40 -19 -40
-3 0 9 22 38 50 65 47 45 82 60 95 39z m-1545 -72 c10 -56 -4 -101 -40 -127
l-30 -23 -40 33 -39 33 66 67 c37 37 69 65 71 63 3 -2 8 -23 12 -46z"/>
<path d="M1065 636 c-28 -28 -32 -58 -10 -76 35 -29 100 22 93 72 -5 34 -50
37 -83 4z"/>
</g>
</svg>
