<svg width="36" height="36" xmlns="http://www.w3.org/2000/svg">

 <g>
  <title>background</title>
  <rect fill="none" id="canvas_background" height="38" width="38" y="-1" x="-1"/>
 </g>
 <g>
  <title>Layer 1</title>
  <path stroke="null" fill="#06084f" id="svg_4" d="m4.09893,27.511063l0,0zm6.445569,5.618457c11.351897,5.715327 25.108857,-2.518618 25.108857,-15.69293c0,-9.590124 -7.696201,-17.436589 -17.316453,-17.436589c-14.14177,0 -22.222781,16.08041 -14.237973,27.511063l0,0l0,0l-1.92405,6.684026l6.637974,-2.034269l1.731645,0.968699zm13.949365,-6.005936c-7.503796,-0.58122 -14.430378,-7.458985 -15.68101,-12.496222c-0.481013,-2.034269 0.096203,-6.393416 2.789873,-6.684026c0.962025,-0.09687 1.53924,0 1.827848,0.67809c0.38481,0.67809 1.827848,3.971668 1.92405,4.359147c0.096203,0.38748 -1.92405,2.324879 -1.827848,2.906098c1.058228,1.840529 5.098733,6.199676 7.888606,6.877766c2.69367,-3.390448 2.020253,-3.390448 5.579746,-1.549919c0.76962,0.38748 1.92405,1.065569 1.92405,1.356179c0,2.906098 -2.597468,4.746627 -4.425316,4.552887z" class="fil2"/>
 </g>
</svg>